#Wavefront OBJ file created by Hexagon 2 
mtllib wood.mtl
g half
usemtl material23
# 35 
v 0.159268 3.41452 -8.41861 
v -0.519204 2.3082 -8.41732 
v -1.4988 1.8296 -8.41379 
v -2.58644 1.90491 -8.40897 
v -3.49071 2.51397 -8.40415 
v -3.9693 3.49357 -8.40062 
v -0.510395 2.45266 -4.36748 
v -1.45929 1.98906 -4.36406 
v -2.51286 2.06201 -4.35939 
v -3.38879 2.65199 -4.35472 
v -3.85239 3.60089 -4.3513 
v -0.518903 2.3361 -0.317956 
v -1.47386 1.86953 -0.314514 
v -2.53416 1.94295 -0.309813 
v -3.41569 2.53669 -0.305112 
v -3.88224 3.49166 -0.301671 
v -0.389131 2.18246 4.10544 
v -1.39343 1.69529 4.38324 
v -2.51076 1.77457 4.48855 
v -3.44175 2.39905 4.39316 
v -3.93694 3.4014 4.12262 
v 0.116474 3.06169 7.7797 
v -0.449055 2.2841 7.78099 
v -1.42865 1.8055 7.78452 
v -2.51629 1.88081 7.78934 
v -3.42056 2.48987 7.79416 
v -3.89915 3.46947 7.79769 
v -3.86736 4.43043 7.79899 
v -3.86363 4.51305 3.74943 
v 0.233021 3.10554 3.7296 
v -3.80881 4.55196 -0.300411 
v 0.0748367 3.21764 -0.319215 
v -3.77942 4.65446 -4.35005 
v 0.0795765 3.32861 -4.36873 
v -3.82456 4.78326 -8.39932 
# 59 1 
vt 0.407622 0.0334253 
vt 0.419321 0.266391 
vt 0.421523 0.738195 
vt 0.423823 0.501247 
vt 0.425277 0.977576 
vt 0.499724 0.98094 
vt 0.500813 0.266647 
vt 0.505391 0.507543 
vt 0.505706 0.0279014 
vt 0.506287 0.765937 
vt 0.584627 0.983767 
vt 0.584853 0.267135 
vt 0.587553 0.511689 
vt 0.587885 0.0253942 
vt 0.590219 0.785315 
vt 0.66997 0.513367 
vt 0.670056 0.024581 
vt 0.670068 0.267421 
vt 0.670229 0.984304 
vt 0.67366 0.792102 
vt 0.752183 0.0254823 
vt 0.752564 0.512414 
vt 0.755301 0.267318 
vt 0.755703 0.982319 
vt 0.756425 0.784962 
vt 0.834521 0.0278378 
vt 0.834964 0.508342 
vt 0.83875 0.765608 
vt 0.839311 0.266805 
vt 0.840617 0.979113 
vt 0.914983 0.977643 
vt 0.916561 0.500609 
vt 0.920777 0.266235 
vt 0.922474 0.738195 
vt 0.932523 0.033473 
vt 0.041894 0.223547 
vt 0.0589623 0.167949 
vt 0.105594 0.121318 
vt 0.169294 0.10425 
vt 0.232993 0.121318 
vt 0.279625 0.167949 
vt 0.296693 0.223547 
vt 0.0483558 0.219808 
vt 0.0648645 0.293917 
vt 0.109967 0.33902 
vt 0.171578 0.355528 
vt 0.233189 0.33902 
vt 0.278291 0.293917 
vt 0.2948 0.219808 
vt 0.0236221 0.680463 
vt 0.0237666 0.595985 
vt 0.0237666 0.934045 
vt 0.0253671 0.76487 
vt 0.0257609 0.849456 
vt 0.149066 0.849456 
vt 0.14946 0.76487 
vt 0.15106 0.595985 
vt 0.15106 0.934045 
vt 0.154521 0.680463 
# 59 
vn 0.835712 -0.534608 0.12562 
vn -0.00433061 0.00148784 -0.99999 
vn 0.318227 0.923183 0.215559 
vn 0.65159 -0.729525 0.207901 
vn -0.00433061 0.00148784 -0.99999 
vn 0.183645 -0.933584 0.307725 
vn -0.00433061 0.00148784 -0.99999 
vn -0.304723 -0.891635 0.334859 
vn -0.00433061 0.00148784 -0.99999 
vn -0.715964 -0.624501 0.312081 
vn -0.00433061 0.00148784 -0.99999 
vn -0.960532 -0.17564 0.215707 
vn -0.00433061 0.00148784 -0.99999 
vn 0.660899 -0.749627 0.0356568 
vn 0.191651 -0.980098 0.0517456 
vn -0.324226 -0.944441 0.0539373 
vn -0.753083 -0.655511 0.0563198 
vn -0.981721 -0.185263 0.0436103 
vn 0.634479 -0.735106 -0.238864 
vn 0.1817 -0.948485 -0.259542 
vn -0.315924 -0.915504 -0.249087 
vn -0.737029 -0.642444 -0.209889 
vn -0.970698 -0.190958 -0.145876 
vn 0.651341 -0.757717 -0.0402551 
vn 0.189781 -0.981763 -0.0111366 
vn -0.325157 -0.945608 -0.00992686 
vn -0.753154 -0.657445 -0.0229137 
vn -0.979123 -0.197417 -0.0484277 
vn 0.802442 -0.555111 0.218947 
vn 0.00433061 -0.00148784 0.99999 
vn 0.321374 0.933108 0.161331 
vn 0.630961 -0.73091 0.260114 
vn 0.00433061 -0.00148784 0.99999 
vn 0.186126 -0.940702 0.283613 
vn 0.00433061 -0.00148784 0.99999 
vn -0.314382 -0.918192 0.241012 
vn 0.00433061 -0.00148784 0.99999 
vn -0.743465 -0.647659 0.166726 
vn 0.00433061 -0.00148784 0.99999 
vn -0.97768 -0.199782 0.0650232 
vn 0.00433061 -0.00148784 0.99999 
vn -0.998662 0.0514482 0.00523117 
vn 0.00433061 -0.00148784 0.99999 
vn 0.321374 0.933108 0.161331 
vn -0.996301 0.0583677 -0.0630737 
vn 0.322474 0.936657 0.136692 
vn 0.821954 -0.566201 -0.0617158 
vn 0.322474 0.936657 0.136692 
vn -0.992279 0.066983 -0.104386 
vn 0.321259 0.932741 0.163668 
vn 0.808039 -0.549265 -0.213031 
vn 0.321259 0.932741 0.163668 
vn -0.996325 0.0807343 0.0286098 
vn 0.318269 0.923314 0.214932 
vn 0.835768 -0.548728 0.0197387 
vn 0.318269 0.923314 0.214932 
vn -0.986685 0.0915228 0.134444 
vn -0.00433061 0.00148784 -0.99999 
vn 0.318227 0.923183 0.215559 
usemtl material23
f 1/35/1 34/33/55 7/29/14 2/26/4 
f 2/26/4 7/29/14 8/23/15 3/21/6 
f 3/21/6 8/23/15 9/18/16 4/17/8 
f 4/17/8 9/18/16 10/12/17 5/14/10 
f 5/14/10 10/12/17 11/7/18 6/9/12 
f 6/9/12 11/7/18 33/2/53 35/1/57 
f 34/33/55 32/32/51 12/27/19 7/29/14 
f 7/29/14 12/27/19 13/22/20 8/23/15 
f 8/23/15 13/22/20 14/16/21 9/18/16 
f 9/18/16 14/16/21 15/13/22 10/12/17 
f 10/12/17 15/13/22 16/8/23 11/7/18 
f 11/7/18 16/8/23 31/4/49 33/2/53 
f 32/32/51 30/34/47 17/28/24 12/27/19 
f 12/27/19 17/28/24 18/25/25 13/22/20 
f 13/22/20 18/25/25 19/20/26 14/16/21 
f 14/16/21 19/20/26 20/15/27 15/13/22 
f 15/13/22 20/15/27 21/10/28 16/8/23 
f 16/8/23 21/10/28 29/3/45 31/4/49 
f 30/34/47 22/31/29 23/30/32 17/28/24 
f 17/28/24 23/30/32 24/24/34 18/25/25 
f 18/25/25 24/24/34 25/19/36 19/20/26 
f 19/20/26 25/19/36 26/11/38 20/15/27 
f 20/15/27 26/11/38 27/6/40 21/10/28 
f 21/10/28 27/6/40 28/5/42 29/3/45 
f 22/42/30 28/36/43 27/37/41 26/38/39 25/39/37 24/40/35 23/41/33 
f 1/49/2 2/48/5 3/47/7 4/46/9 5/45/11 6/44/13 35/43/58 
f 33/54/54 34/55/56 1/58/3 35/52/59 
f 31/53/50 32/56/52 34/55/56 33/54/54 
f 29/50/46 30/59/48 32/56/52 31/53/50 
f 28/51/44 22/57/31 30/59/48 29/50/46 
g base
usemtl material23
# 60 
v 4.61084 2.01256 -8.40897 
v 4.32866 0.959461 -8.41379 
v 3.55773 0.188537 -8.41732 
v 2.50461 -0.09364 -8.41861 
v 1.4515 0.188538 -8.41732 
v 0.680569 0.959461 -8.41379 
v 0.398388 2.01256 -8.40897 
v 0.680569 3.06566 -8.40415 
v 1.4515 3.83659 -8.40062 
v 2.50461 4.11877 -8.39932 
v 3.55773 3.83659 -8.40062 
v 4.32866 3.06566 -8.40415 
v 4.65133 1.99402 -4.35939 
v 4.37799 0.973916 -4.36406 
v 3.63122 0.227148 -4.36748 
v 2.6111 -0.0461877 -4.36873 
v 1.59099 0.227148 -4.36748 
v 0.844212 0.973916 -4.36406 
v 0.570873 1.99402 -4.35939 
v 0.844212 3.01412 -4.35472 
v 1.59099 3.76089 -4.3513 
v 2.6111 4.03423 -4.35005 
v 3.63122 3.76089 -4.3513 
v 4.37799 3.01412 -4.35472 
v 4.55787 1.97548 -0.309813 
v 4.28279 0.948856 -0.314514 
v 3.53124 0.197319 -0.317956 
v 2.50461 -0.0777628 -0.319215 
v 1.47798 0.197319 -0.317956 
v 0.726437 0.948856 -0.314514 
v 0.451353 1.97548 -0.309813 
v 0.726438 3.0021 -0.305112 
v 1.47798 3.75363 -0.301671 
v 2.50461 4.02871 -0.300411 
v 3.53124 3.75363 -0.301671 
v 4.28279 3.00209 -0.305112 
v 4.60029 1.90549 2.99048 
v 4.31221 0.822109 3.08587 
v 3.52515 0.0280966 3.35641 
v 2.45 -0.263787 3.7296 
v 1.37485 0.0246668 4.10544 
v 0.587788 0.816168 4.38324 
v 0.299704 1.89864 4.48855 
v 0.587789 2.98202 4.39316 
v 1.37485 3.77603 4.12262 
v 2.45 4.06792 3.74943 
v 3.52515 3.77946 3.37358 
v 4.31221 2.98796 3.09579 
v 4.61084 1.93839 7.78934 
v 4.32866 0.885287 7.78452 
v 3.55773 0.114364 7.78099 
v 2.50461 -0.167814 7.7797 
v 1.4515 0.114364 7.78099 
v 0.680569 0.885287 7.78452 
v 0.398388 1.93839 7.78934 
v 0.680569 2.99149 7.79416 
v 1.4515 3.76241 7.79769 
v 2.50461 4.04459 7.79899 
v 3.55773 3.76241 7.79769 
v 4.32866 2.99149 7.79416 
# 89 60 
vt 0.388103 0.260652 
vt 0.387592 0.0378268 
vt 0.403012 0.948079 
vt 0.39665 0.489934 
vt 0.404841 0.722269 
vt 0.434493 0.260812 
vt 0.432803 0.0378263 
vt 0.440798 0.489778 
vt 0.448043 0.948063 
vt 0.448651 0.722284 
vt 0.480948 0.260984 
vt 0.478017 0.0378258 
vt 0.485308 0.489721 
vt 0.49296 0.948387 
vt 0.492419 0.722318 
vt 0.523157 0.0378257 
vt 0.529974 0.489669 
vt 0.527458 0.261112 
vt 0.537775 0.948776 
vt 0.535696 0.722362 
vt 0.574712 0.489585 
vt 0.568145 0.037826 
vt 0.578551 0.722409 
vt 0.582466 0.949131 
vt 0.573702 0.261157 
vt 0.621332 0.722455 
vt 0.619404 0.489468 
vt 0.61291 0.0378266 
vt 0.626953 0.949394 
vt 0.619165 0.261104 
vt 0.664379 0.722495 
vt 0.663959 0.489329 
vt 0.657424 0.0378272 
vt 0.671167 0.949539 
vt 0.66346 0.260967 
vt 0.708 0.722526 
vt 0.708216 0.489195 
vt 0.715029 0.94955 
vt 0.701762 0.0378276 
vt 0.706653 0.260784 
vt 0.752138 0.722543 
vt 0.758653 0.949502 
vt 0.752094 0.489103 
vt 0.746041 0.0378279 
vt 0.749109 0.260606 
vt 0.79671 0.722548 
vt 0.80197 0.949477 
vt 0.791642 0.260485 
vt 0.795571 0.489095 
vt 0.790428 0.0378282 
vt 0.841313 0.72254 
vt 0.844934 0.949541 
vt 0.834616 0.26046 
vt 0.83873 0.489207 
vt 0.83484 0.0378288 
vt 0.887754 0.949816 
vt 0.881467 0.489459 
vt 0.878069 0.260547 
vt 0.885324 0.722531 
vt 0.879092 0.0378298 
vt 0.923745 0.489895 
vt 0.930408 0.950467 
vt 0.927788 0.722535 
vt 0.92213 0.260741 
vt 0.922931 0.0378309 
vt 0.163983 0.34999 
vt 0.101706 0.332807 
vt 0.226509 0.333731 
vt 0.0563629 0.286787 
vt 0.272529 0.288389 
vt 0.0401047 0.224262 
vt 0.289711 0.226111 
vt 0.0572875 0.161984 
vt 0.273453 0.163585 
vt 0.103307 0.116641 
vt 0.22811 0.117566 
vt 0.165833 0.100383 
vt 0.183574 0.852082 
vt 0.121297 0.834899 
vt 0.2461 0.835823 
vt 0.0759537 0.788879 
vt 0.292119 0.79048 
vt 0.0596955 0.726354 
vt 0.309302 0.728203 
vt 0.0768782 0.664076 
vt 0.293044 0.665677 
vt 0.122898 0.618733 
vt 0.247701 0.619658 
vt 0.185423 0.602475 
# 84 
vn 0.996538 0.000380621 -0.083138 
vn 5.13374e-009 0.00457906 -0.99999 
vn 0.86474 -0.499061 -0.0562352 
vn 5.13374e-009 0.00457906 -0.99999 
vn 0.499862 -0.865818 0.022293 
vn 5.13374e-009 0.00457906 -0.99999 
vn 0.000236692 -0.991495 0.130146 
vn 5.13374e-009 0.00457906 -0.99999 
vn -0.485256 -0.842294 0.234664 
vn 5.13374e-009 0.00457906 -0.99999 
vn -0.823254 -0.477031 0.307725 
vn 5.13374e-009 0.00457906 -0.99999 
vn -0.942267 -0.00153318 0.334859 
vn 5.13374e-009 0.00457906 -0.99999 
vn -0.823254 0.474193 0.312081 
vn 5.13374e-009 0.00457906 -0.99999 
vn -0.485256 0.84011 0.242368 
vn 5.13374e-009 0.00457906 -0.99999 
vn 0.000236783 0.990261 0.139221 
vn 5.13374e-009 0.00457906 -0.99999 
vn 0.499862 0.865577 0.0302212 
vn 5.13374e-009 0.00457906 -0.99999 
vn 0.864741 0.499555 -0.0516625 
vn 5.13374e-009 0.00457906 -0.99999 
vn 0.998521 -0.000249025 0.0543659 
vn 0.864695 -0.499586 0.052118 
vn 0.499221 -0.865002 0.0505009 
vn 0.000142775 -0.998757 0.0498479 
vn -0.499013 -0.865134 0.0502847 
vn -0.864642 -0.499716 0.0517456 
vn -0.998544 -0.000246838 0.0539373 
vn -0.864642 0.499222 0.0563198 
vn -0.499013 0.864638 0.0582055 
vn 0.000142868 0.998258 0.0589924 
vn 0.499221 0.864503 0.0584204 
vn 0.864695 0.499087 0.0566911 
vn 0.999117 -0.000230732 0.0420239 
vn 0.865746 -0.500129 -0.018826 
vn 0.495906 -0.861904 -0.105821 
vn -0.00325453 -0.982567 -0.185881 
vn -0.489055 -0.83891 -0.238864 
vn -0.837977 -0.480034 -0.259542 
vn -0.96848 0.00130467 -0.249087 
vn -0.847068 0.488285 -0.209889 
vn -0.496008 0.855977 -0.145876 
vn -0.0010845 0.997776 -0.0666494 
vn 0.499982 0.865998 0.00808688 
vn 0.86514 0.498904 0.0512597 
vn 0.998056 0.000308319 -0.0623305 
vn 0.864191 -0.49766 -0.0742187 
vn 0.499085 -0.863262 -0.0754504 
vn -0.000874642 -0.99832 -0.0579406 
vn -0.501448 -0.864648 -0.0305627 
vn -0.866824 -0.498489 -0.0111366 
vn -0.999951 0.000254204 -0.00992686 
vn -0.866494 0.498661 -0.0229137 
vn -0.5013 0.864403 -0.0387887 
vn -0.00101564 0.99881 -0.0487663 
vn 0.499603 0.864719 -0.0515607 
vn 0.865082 0.498754 -0.0536477 
vn 0.99986 0.000198913 -0.0167245 
vn 8.19291e-017 -0.00457906 0.99999 
vn 0.865931 -0.49771 0.0494802 
vn 8.19291e-017 -0.00457906 0.99999 
vn 0.49845 -0.855725 0.138862 
vn 8.19291e-017 -0.00457906 0.99999 
vn 0.00478484 -0.974477 0.224436 
vn 8.19291e-017 -0.00457906 0.99999 
vn -0.476596 -0.833946 0.278192 
vn 8.19291e-017 -0.00457906 0.99999 
vn -0.829179 -0.481691 0.283613 
vn 8.19291e-017 -0.00457906 0.99999 
vn -0.970521 -0.00102718 0.241012 
vn 8.19291e-017 -0.00457906 0.99999 
vn -0.854091 0.492678 0.166726 
vn 8.19291e-017 -0.00457906 0.99999 
vn -0.498381 0.862834 0.0844652 
vn 8.19291e-017 -0.00457906 0.99999 
vn 0.00018747 0.999906 0.0136828 
vn 8.19291e-017 -0.00457906 0.99999 
vn 0.500332 0.865218 -0.0326438 
vn 8.19291e-017 -0.00457906 0.99999 
vn 0.865511 0.498884 -0.0447807 
vn 8.19291e-017 -0.00457906 0.99999 
usemtl material23
f 36/83/60 48/82/84 49/85/85 37/88/62 
f 37/88/62 49/85/85 50/90/86 38/93/64 
f 38/93/64 50/90/86 51/95/87 39/97/66 
f 39/97/66 51/95/87 52/100/88 40/101/68 
f 40/101/68 52/100/88 53/105/89 41/106/70 
f 41/106/70 53/105/89 54/110/90 42/111/72 
f 42/111/72 54/110/90 55/118/91 43/115/74 
f 43/115/74 55/118/91 56/122/92 44/121/76 
f 44/62/76 56/64/92 57/69/93 45/68/78 
f 45/68/78 57/69/93 58/74/94 46/73/80 
f 46/73/80 58/74/94 59/79/95 47/78/82 
f 47/78/82 59/79/95 48/82/84 36/83/60 
f 48/82/84 60/80/96 61/86/97 49/85/85 
f 49/85/85 61/86/97 62/91/98 50/90/86 
f 50/90/86 62/91/98 63/96/99 51/95/87 
f 51/95/87 63/96/99 64/102/100 52/100/88 
f 52/100/88 64/102/100 65/108/101 53/105/89 
f 53/105/89 65/108/101 66/113/102 54/110/90 
f 54/110/90 66/113/102 67/116/103 55/118/91 
f 55/118/91 67/116/103 68/120/104 56/122/92 
f 56/64/92 68/63/104 69/67/105 57/69/93 
f 57/69/93 69/67/105 70/72/106 58/74/94 
f 58/74/94 70/72/106 71/76/107 59/79/95 
f 59/79/95 71/76/107 60/80/96 48/82/84 
f 60/80/96 72/84/108 73/89/109 61/86/97 
f 61/86/97 73/89/109 74/94/110 62/91/98 
f 62/91/98 74/94/110 75/99/111 63/96/99 
f 63/96/99 75/99/111 76/104/112 64/102/100 
f 64/102/100 76/104/112 77/107/113 65/108/101 
f 65/108/101 77/107/113 78/112/114 66/113/102 
f 66/113/102 78/112/114 79/117/115 67/116/103 
f 67/116/103 79/117/115 80/123/116 68/120/104 
f 68/63/104 80/60/116 81/65/117 69/67/105 
f 69/67/105 81/65/117 82/70/118 70/72/106 
f 70/72/106 82/70/118 83/77/119 71/76/107 
f 71/76/107 83/77/119 72/84/108 60/80/96 
f 72/84/108 84/81/120 85/87/122 73/89/109 
f 73/89/109 85/87/122 86/92/124 74/94/110 
f 74/94/110 86/92/124 87/98/126 75/99/111 
f 75/99/111 87/98/126 88/103/128 76/104/112 
f 76/104/112 88/103/128 89/109/130 77/107/113 
f 77/107/113 89/109/130 90/114/132 78/112/114 
f 78/112/114 90/114/132 91/119/134 79/117/115 
f 79/117/115 91/119/134 92/124/136 80/123/116 
f 80/60/116 92/61/136 93/66/138 81/65/117 
f 81/65/117 93/66/138 94/71/140 82/70/118 
f 82/70/118 94/71/140 95/75/142 83/77/119 
f 83/77/119 95/75/142 84/81/120 72/84/108 
f 95/129/143 94/127/141 93/125/139 92/126/137 91/128/135 90/130/133 89/132/131 88/134/129 87/136/127 86/135/125 85/133/123 84/131/121 
f 36/142/61 37/144/63 38/146/65 39/148/67 40/147/69 41/145/71 42/143/73 43/141/75 44/139/77 45/137/79 46/138/81 47/140/83 
